<?xml version="1.0" encoding="UTF-8"?>
<!DOCTYPE svg PUBLIC "-//W3C//DTD SVG 1.1//EN" "http://www.w3.org/Graphics/SVG/1.1/DTD/svg11.dtd">
<!-- Creator: CorelDRAW 2020 (64 Bit) -->
<svg xmlns="http://www.w3.org/2000/svg" xml:space="preserve" width="17720mm" height="11820mm" version="1.1" style="shape-rendering:geometricPrecision; text-rendering:geometricPrecision; image-rendering:optimizeQuality; fill-rule:evenodd; clip-rule:evenodd"
viewBox="0 0 1772000 1182000"
 xmlns:xlink="http://www.w3.org/1999/xlink"
 xmlns:xodm="http://www.corel.com/coreldraw/odm/2003">
 <defs>
  <style type="text/css">
   <![CDATA[
    .str0 {stroke:white;stroke-width:150;stroke-miterlimit:22.9256;stroke-opacity:0.501961}
    .str1 {stroke:#F6997E;stroke-width:1000;stroke-miterlimit:22.9256}
    .fil2 {fill:none}
    .fil1 {fill:#FEFEFE}
    .fil0 {fill:#ED3237;fill-opacity:0.501961}
   ]]>
  </style>
 </defs>
 <g id="Camada_x0020_1">
  <metadata id="CorelCorpID_0Corel-Layer"/>
  <path class="fil0" d="M612235.34 603032.87l111760.04 0c9313.34,0 16933.34,7620 16933.34,16933.34l0 118533.38c0,9313.34 -7620,16933.34 -16933.34,16933.34l-111760.04 0c-9313.34,0 -16933.34,-7620 -16933.34,-16933.34l0 -118533.38c0,-9313.34 7620,-16933.34 16933.34,-16933.34z"/>
  <rect class="fil1" x="610824.46" y="621659.49" width="112278.13" height="117500.37"/>
  <g id="_2298732034912">
   <polygon class="fil1" points="655650.52,710173.06 655650.52,663958.35 750880.84,570128.49 792894.21,610741.41 703265.68,700369.95 "/>
   <rect class="fil1" transform="matrix(0.954784 0.931375 -0.931375 0.954784 777922 544555)" width="42897.8" height="23706.67" rx="3671.01" ry="3671.01"/>
  </g>
  <polygon class="fil0 str0" points="659341.31,707096.02 659341.31,671734.8 732206.85,599940.82 764353.41,631015.83 695774.08,699595.16 "/>
  <path class="fil0 str0" d="M755618.83 579998.31l27365.32 26694.39c1553.95,1515.85 1585.12,4027.51 69.27,5581.46l-12286.18 12594.98c-1515.85,1553.95 -4027.5,1585.12 -5581.46,69.27l-27365.32 -26694.39c-1553.96,-1515.85 -1585.13,-4027.51 -69.28,-5581.46l12286.17 -12594.98c1515.86,-1553.95 4027.52,-1585.13 5581.48,-69.27z"/>
  <ellipse class="fil2 str1" cx="675948.47" cy="680431.37" rx="147994.13" ry="144920.07"/>
 </g>
</svg>
